<?xml version="1.0" standalone="no"?>
<!DOCTYPE svg PUBLIC "-//W3C//DTD SVG 20010904//EN"
 "http://www.w3.org/TR/2001/REC-SVG-20010904/DTD/svg10.dtd">
<svg version="1.0" xmlns="http://www.w3.org/2000/svg"
 width="200.000000pt" height="200.000000pt" viewBox="0 0 200.000000 200.000000"
 preserveAspectRatio="xMidYMid meet">
<metadata>
Created by potrace 1.11, written by Peter Selinger 2001-2013
</metadata>
<g transform="translate(0.000000,200.000000) scale(0.100000,-0.100000)"
fill="#000000" stroke="none">
<path d="M977 1750 c-15 -35 -21 -61 -16 -71 7 -13 2 -16 -23 -17 -17 0 -40
-10 -52 -21 l-20 -21 29 0 c38 0 52 -9 63 -40 13 -36 -4 -66 -47 -83 -31 -13
-40 -13 -63 -1 -14 7 -28 19 -30 26 -3 7 -12 -1 -22 -19 -9 -18 -20 -34 -24
-34 -67 -11 -98 5 -106 54 -7 40 34 81 74 75 33 -5 31 13 -3 31 -25 13 -80 7
-85 -9 -5 -14 -22 -12 -22 3 0 7 -18 33 -40 57 -22 24 -40 40 -40 36 0 -5 9
-40 21 -79 11 -38 22 -77 24 -86 10 -42 44 -151 53 -167 9 -17 36 -18 356 -18
l345 -1 27 85 c14 46 28 91 29 100 2 8 13 46 24 85 12 38 21 74 21 79 0 5 -18
-10 -40 -33 -22 -23 -40 -46 -40 -51 0 -12 -23 -13 -34 -3 -15 15 -59 13 -77
-3 -26 -23 -24 -32 5 -27 37 7 79 -37 70 -74 -7 -30 -38 -63 -59 -63 -31 0
-66 21 -75 45 l-10 25 -20 -20 c-23 -23 -76 -26 -102 -6 -52 39 -33 115 30
116 12 0 22 4 22 9 0 17 -31 34 -59 33 -22 0 -28 3 -25 16 3 9 -4 42 -15 72
l-19 55 -25 -55z"/>
<path d="M621 1241 c-7 -5 -33 -6 -57 -3 l-44 5 0 -330 c0 -367 5 -405 64
-496 46 -72 84 -109 153 -150 96 -56 147 -69 268 -69 134 -1 254 47 350 138
44 42 101 135 97 157 -1 4 2 7 6 7 13 0 14 20 18 386 l5 352 -63 1 -63 1 -1
-338 c0 -329 -1 -338 -23 -386 -70 -150 -247 -226 -431 -185 -126 28 -240 146
-252 260 l-3 34 229 3 230 2 -59 60 -59 60 -171 0 -171 0 0 60 -1 60 44 1 c23
1 46 2 51 3 12 2 112 102 112 112 0 5 -40 9 -92 9 -51 -1 -98 1 -104 3 -7 2
-11 26 -10 60 l1 57 168 1 168 0 54 52 c30 28 55 56 55 61 0 6 -41 10 -97 9
-54 0 -102 1 -108 2 -5 1 -14 1 -20 0 -20 -4 -215 -1 -223 4 -4 2 -14 1 -21
-3z"/>
<path d="M1010 1085 l-152 -152 153 -151 153 -152 86 0 85 0 -152 153 -152
152 97 97 c53 53 121 121 151 151 l53 55 -85 0 -85 -1 -152 -152z"/>
<path d="M845 535 c-11 -9 -14 -13 -6 -10 10 6 12 -3 10 -44 -3 -40 -1 -51 11
-51 12 0 14 10 12 48 -5 76 -5 75 -27 57z"/>
<path d="M911 531 c-7 -13 -6 -24 3 -37 13 -17 14 -15 13 19 -1 42 -3 44 -16
18z"/>
<path d="M954 528 c14 -19 14 -23 -2 -35 -9 -8 -11 -12 -4 -8 7 4 12 0 12 -9
0 -9 -4 -16 -9 -16 -5 0 -11 -7 -15 -15 -4 -12 -2 -13 14 -3 37 24 46 79 16
100 -21 15 -27 8 -12 -14z"/>
<path d="M1011 534 c0 -11 3 -14 6 -6 3 7 2 16 -1 19 -3 4 -6 -2 -5 -13z"/>
<path d="M1044 534 c9 -8 16 -18 16 -20 0 -15 -32 -64 -47 -73 -15 -9 -12 -10
15 -11 17 0 35 0 39 -1 4 0 9 5 11 11 3 8 -3 10 -17 5 -26 -8 -26 -2 0 34 17
23 19 32 10 50 -7 11 -19 21 -27 21 -14 0 -14 -2 0 -16z"/>
<path d="M1115 530 c-7 -23 1 -40 20 -40 20 0 26 -28 9 -44 -8 -8 -22 -13 -32
-10 -14 5 -14 4 -3 -4 24 -17 56 2 59 36 3 26 -1 32 -22 38 -33 8 -34 24 -1
24 32 0 33 15 1 18 -17 1 -27 -5 -31 -18z"/>
</g>
</svg>
